# xmcd
#
# Track frame offsets:
# 150
# 17654
# 33387
# 49022
# 65023
# 81328
# 95409
# 115207
# 138761
# 151216
#
# Disc length: 2223 seconds
#
#
# Revision: 0
# Processed by: cddbd v1.5.2PL0 Copyright (c) Steve Scherf et al.
# Submitted via: FreeRIP 2.951 
#
DISCID=7a08ad0a
DTITLE=Rhett Akins - A Thousand Memories
DYEAR=1995
DGENRE=Country
TTITLE0=Heart to Heart
TTITLE1=What They're Talkin' About
TTITLE2=Old Dirt Road
TTITLE3=She Said Yes
TTITLE4=That Ain't My Truck
TTITLE5=Katy Brought My Guitar Back Today
TTITLE6=A Thousand Memories
TTITLE7=I Brake For Brunettes
TTITLE8=Same Ol' Story
TTITLE9=Those Hands
EXTD=
EXTT0=
EXTT1=
EXTT2=
EXTT3=
EXTT4=
EXTT5=
EXTT6=
EXTT7=
EXTT8=
EXTT9=
PLAYORDER=
